<?xml version="1.0" encoding="UTF-8"?>
<!DOCTYPE svg PUBLIC "-//W3C//DTD SVG 1.1//EN" "http://www.w3.org/Graphics/SVG/1.1/DTD/svg11.dtd">
<svg xmlns="http://www.w3.org/2000/svg" version="1.1" width="60px" height="42px" style="shape-rendering:geometricPrecision; text-rendering:geometricPrecision; image-rendering:optimizeQuality; fill-rule:evenodd; clip-rule:evenodd" xmlns:xlink="http://www.w3.org/1999/xlink">
<g><path style="opacity:1" fill="#fbfbfc" d="M -0.5,-0.5 C 19.5,-0.5 39.5,-0.5 59.5,-0.5C 59.5,13.5 59.5,27.5 59.5,41.5C 39.5,41.5 19.5,41.5 -0.5,41.5C -0.5,27.5 -0.5,13.5 -0.5,-0.5 Z"/></g>
<g><path style="opacity:1" fill="#dbdde1" d="M 6.5,3.5 C 12.5368,3.17075 18.5368,3.50408 24.5,4.5C 25.5,5.16667 26.5,5.83333 27.5,6.5C 19.4222,10.4261 11.4222,10.4261 3.5,6.5C 4.99346,5.85892 5.99346,4.85892 6.5,3.5 Z"/></g>
<g><path style="opacity:1" fill="#e2e3e7" d="M 55.5,16.5 C 48.8333,16.5 42.1667,16.5 35.5,16.5C 34.5,16.5 33.5,16.5 32.5,16.5C 32.1667,16.5 31.8333,16.5 31.5,16.5C 31.1667,16.5 30.8333,16.5 30.5,16.5C 30.5,13.8333 30.5,11.1667 30.5,8.5C 37.8635,8.16941 45.1968,8.50274 52.5,9.5C 49.2913,10.7874 46.1247,10.7874 43,9.5C 42.5172,10.448 42.3505,11.448 42.5,12.5C 48.2611,12.7088 48.5945,13.5422 43.5,15C 47.6877,15.1762 51.6877,15.6762 55.5,16.5 Z"/></g>
<g><path style="opacity:1" fill="#334a70" d="M 31.5,16.5 C 31.8333,16.5 32.1667,16.5 32.5,16.5C 32.2148,18.288 32.5481,19.9547 33.5,21.5C 34.6348,20.8973 35.6348,20.5639 36.5,20.5C 36.2124,19.1395 35.879,17.8062 35.5,16.5C 42.1667,16.5 48.8333,16.5 55.5,16.5C 54.6649,17.9432 53.3316,18.9432 51.5,19.5C 52.6507,20.731 53.8173,20.731 55,19.5C 55.4993,24.4889 55.6659,29.4889 55.5,34.5C 47.5,34.5 39.5,34.5 31.5,34.5C 33.2646,33.5386 35.2646,33.2053 37.5,33.5C 37.5,31.8333 37.5,30.1667 37.5,28.5C 35.5,28.5 33.5,28.5 31.5,28.5C 31.5,24.5 31.5,20.5 31.5,16.5 Z"/></g>
<g><path style="opacity:1" fill="#7d8699" d="M 32.5,16.5 C 33.5,16.5 34.5,16.5 35.5,16.5C 35.879,17.8062 36.2124,19.1395 36.5,20.5C 35.6348,20.5639 34.6348,20.8973 33.5,21.5C 32.5481,19.9547 32.2148,18.288 32.5,16.5 Z"/></g>
<g><path style="opacity:1" fill="#9099a8" d="M 45.5,17.5 C 49.7049,16.8454 50.8715,18.1788 49,21.5C 46.9286,20.8971 45.7619,19.5638 45.5,17.5 Z"/></g>
<g><path style="opacity:1" fill="#768094" d="M 39.5,17.5 C 42.1662,17.0658 43.3329,18.0658 43,20.5C 40.3422,21.694 39.1756,20.694 39.5,17.5 Z"/></g>
<g><path style="opacity:1" fill="#64718b" d="M 39.5,22.5 C 42.4578,23.5411 45.4578,23.5411 48.5,22.5C 48.4208,23.9305 48.7542,25.2638 49.5,26.5C 44.5084,28.4207 44.5084,29.4207 49.5,29.5C 49.6495,30.552 49.4828,31.552 49,32.5C 47.3903,32.8696 45.8903,32.2029 44.5,30.5C 42.4495,33.215 40.7828,33.0483 39.5,30C 41.1932,28.6525 42.8598,28.1525 44.5,28.5C 42.6587,27.7696 40.8254,27.1029 39,26.5C 38.4209,25.0715 38.5876,23.7382 39.5,22.5 Z"/></g>
<g><path style="opacity:1" fill="#c2c5cc" d="M 55.5,16.5 C 56.8333,22.5 56.8333,28.5 55.5,34.5C 55.6659,29.4889 55.4993,24.4889 55,19.5C 53.8173,20.731 52.6507,20.731 51.5,19.5C 53.3316,18.9432 54.6649,17.9432 55.5,16.5 Z"/></g>
<g><path style="opacity:1" fill="#878fa0" d="M 33.5,23.5 C 34.5,23.5 35.5,23.5 36.5,23.5C 36.5,24.5 36.5,25.5 36.5,26.5C 35.5,26.5 34.5,26.5 33.5,26.5C 33.5,25.5 33.5,24.5 33.5,23.5 Z"/></g>
<g><path style="opacity:1" fill="#9199a8" d="M 52.5,23.5 C 54.9701,24.3603 55.1368,25.6936 53,27.5C 51.2317,26.3181 51.0651,24.9848 52.5,23.5 Z"/></g>
<g><path style="opacity:1" fill="#808a9d" d="M 30.5,16.5 C 30.8333,16.5 31.1667,16.5 31.5,16.5C 31.5,20.5 31.5,24.5 31.5,28.5C 33.5,28.5 35.5,28.5 37.5,28.5C 37.5,30.1667 37.5,31.8333 37.5,33.5C 35.2646,33.2053 33.2646,33.5386 31.5,34.5C 30.5104,28.69 30.1771,22.69 30.5,16.5 Z"/></g>
<g><path style="opacity:1" fill="#e3e3e4" d="M 11.5,11.5 C 13.3635,10.2072 15.3635,10.2072 17.5,11.5C 18.6405,12.4255 18.6405,13.2588 17.5,14C 20.5399,14.3201 23.5399,14.3201 26.5,14C 24.9411,14.9799 23.2744,15.8133 21.5,16.5C 23.396,17.4656 25.396,17.7989 27.5,17.5C 27.5,20.5 27.5,23.5 27.5,26.5C 23.8183,26.3347 20.1516,26.5014 16.5,27C 17.7932,27.49 19.1266,27.6567 20.5,27.5C 20.238,28.9778 20.5713,30.3112 21.5,31.5C 22.3857,30.675 22.719,29.675 22.5,28.5C 23.8333,28.5 25.1667,28.5 26.5,28.5C 26.5,30.1667 26.5,31.8333 26.5,33.5C 21.1798,32.74 15.8465,32.0733 10.5,31.5C 10.5,28.5 10.5,25.5 10.5,22.5C 12.7063,21.4159 11.373,21.2492 6.5,22C 8.30077,22.3173 8.63411,22.984 7.5,24C 8.16667,26.3333 8.83333,28.6667 9.5,31C 7.86586,31.4935 6.19919,31.6602 4.5,31.5C 4.5,25.1667 4.5,18.8333 4.5,12.5C 8.51383,12.6655 12.5138,12.4988 16.5,12C 14.8659,11.5065 13.1992,11.3398 11.5,11.5 Z"/></g>
<g><path style="opacity:1" fill="#516280" d="M 16.5,18.5 C 19.4818,18.8273 22.3151,18.8273 25,18.5C 26.3515,20.5938 26.8515,22.9272 26.5,25.5C 23.1667,25.5 19.8333,25.5 16.5,25.5C 16.5,23.1667 16.5,20.8333 16.5,18.5 Z"/></g>
</svg>
